<?xml version="1.0" encoding="UTF-8" standalone="no"?>
<!-- Generator: Adobe Illustrator 27.0.0, SVG Export Plug-In . SVG Version: 6.00 Build 0)  -->

<svg
   version="1.1"
   id="Layer_1"
   x="0px"
   y="0px"
   viewBox="0 0 1000 308.5"
   xml:space="preserve"
   sodipodi:docname="Motec Logo (White Background).svg"
   width="1000"
   height="308.5"
   inkscape:version="1.3.2 (091e20e, 2023-11-25, custom)"
   xmlns:inkscape="http://www.inkscape.org/namespaces/inkscape"
   xmlns:sodipodi="http://sodipodi.sourceforge.net/DTD/sodipodi-0.dtd"
   xmlns="http://www.w3.org/2000/svg"
   xmlns:svg="http://www.w3.org/2000/svg"><defs
   id="defs94">
	
		
	
		
	
</defs><sodipodi:namedview
   id="namedview94"
   pagecolor="#ffffff"
   bordercolor="#000000"
   borderopacity="0.25"
   inkscape:showpageshadow="2"
   inkscape:pageopacity="0.0"
   inkscape:pagecheckerboard="0"
   inkscape:deskcolor="#d1d1d1"
   showgrid="false"
   inkscape:zoom="1.1610693"
   inkscape:cx="502.12333"
   inkscape:cy="165.79544"
   inkscape:window-width="1920"
   inkscape:window-height="1017"
   inkscape:window-x="-8"
   inkscape:window-y="-8"
   inkscape:window-maximized="1"
   inkscape:current-layer="Layer_1" />

<g
   id="g92">
</g>
<g
   id="g94"
   transform="matrix(1.0008636,0,0,1.0008636,-0.43191493,-0.43189755)"><path
     style="clip-rule:evenodd;fill:#e20613;fill-opacity:1;fill-rule:evenodd;stroke:none;stroke-width:1.57051;stroke-miterlimit:22.9256"
     d="M 1.4797705,36.804817 C 1.3601042,24.58999 16.2918,2.1680695 33.588013,1.4589359 H 967.10265 c 16.2591,0.5916834 31.25063,17.8258471 31.40576,35.6672071 l 0.19058,237.143157 c 0.0266,13.03255 -20.03081,33.18303 -31.59413,33.50435 H 33.590229 C 20.8502,307.20192 2.2287929,288.77774 1.4819865,275.70308 V 36.804817 Z"
     id="path92" /><path
     style="clip-rule:evenodd;fill:#ffffff;fill-rule:evenodd;stroke:none;stroke-width:1.57051;stroke-miterlimit:22.9256"
     d="M 21.479556,49.555927 C 21.364322,38.969891 35.671093,19.537412 52.244877,18.923568 H 946.65965 c 15.57878,0.511906 29.93874,15.448034 30.08943,30.909364 l 0.1795,205.524668 c 0.0266,11.29295 -19.19314,28.75758 -30.27114,29.03459 H 52.242661 C 40.036697,283.89579 22.195338,267.92921 21.47734,256.59636 V 49.555927 Z"
     id="path93" /><path
     style="fill:#000000;stroke:none;stroke-width:1.25627;stroke-miterlimit:22.9256"
     d="M 201.79895,249.19478 H 165.23203 L 181.56426,86.79874 128.65846,249.19478 H 93.877671 L 160.6692,54.856701 h 54.94013 L 202.00283,191.00593 285.30609,54.856701 H 340.9487 L 274.02643,249.19478 H 238.8534 L 298.75082,87.977675 Z m 123.88122,-58.46364 c 3.70744,-26.06066 13.78157,-46.87373 30.16477,-62.35057 16.39207,-15.52117 36.17912,-23.30169 59.26363,-23.30169 20.03081,0 34.83841,5.74841 44.46712,17.19649 9.63313,11.44586 13.07243,26.83184 10.31789,46.19562 -3.24429,22.8053 -13.07022,42.48819 -29.52655,59.093 -16.4231,16.65134 -36.45391,24.93491 -60.06362,24.93491 -12.78879,0 -23.71609,-2.62601 -32.8617,-7.96446 -9.11015,-5.29191 -15.41479,-12.80429 -18.92057,-22.53493 -3.47033,-9.6819 -4.42323,-20.13497 -2.84097,-31.26837 z m 108.47529,-27.18863 c 1.28087,-9.00378 -0.22604,-16.19927 -4.55397,-21.67511 -4.29247,-5.4293 -10.44864,-8.14617 -18.43526,-8.14617 -7.94008,0 -15.32836,2.53515 -22.20918,7.64978 -6.83206,5.06587 -12.68019,12.44086 -17.46463,22.12275 -4.78,9.68411 -7.7495,18.59925 -8.90406,26.69667 -1.43378,10.08964 0.0886,18.10064 4.52516,24.02633 4.44538,5.8836 10.65695,8.86639 18.68567,8.86639 10.03646,0 19.13996,-4.47641 27.21522,-13.38933 11.48354,-12.62479 18.55936,-28.00856 21.14105,-46.15131 z m 75.7532,85.65227 H 471.28747 L 527.04089,87.341671 h -54.94013 l 11.12453,-32.48497 h 147.6793 l -11.12453,32.48497 H 565.53577 Z M 684.7367,190.6004 h -92.08322 c -0.29916,1.49139 -0.5119,2.66811 -0.62049,3.43708 -1.33184,9.36721 0.1662,16.9217 4.49857,22.67012 4.3789,5.74619 10.24919,8.64478 17.6685,8.64478 12.17716,0 22.62358,-6.5617 31.29274,-19.64079 l 32.04841,5.7041 c -8.36556,13.71065 -18.33775,23.97979 -30.0451,30.81185 -11.6719,6.8786 -24.15487,10.27358 -37.42232,10.27358 -18.24246,0 -32.23012,-5.97445 -41.95855,-17.96546 -9.68854,-11.94447 -13.15221,-27.78031 -10.3467,-47.51196 2.74346,-19.27292 10.32897,-36.42287 22.7654,-51.44543 16.94387,-20.31668 38.46607,-30.49718 64.56219,-30.49718 16.62697,0 29.08999,5.34067 37.35583,15.97324 8.29908,10.67911 11.06692,25.5687 8.33676,44.74855 -1.30304,9.18328 -3.31077,17.46463 -6.05202,24.79752 z M 657.096,167.38513 c 0.32355,-1.67311 0.50526,-2.94069 0.63379,-3.84262 1.48032,-10.40653 0.36786,-18.23581 -3.42822,-23.43686 -3.75397,-5.2077 -9.44699,-7.82707 -17.04358,-7.82707 -7.59216,0 -14.77657,2.94291 -21.63966,8.86639 -6.86751,5.9257 -12.17494,14.70788 -15.95329,26.24238 H 657.096 Z m 178.81914,11.81151 38.01621,6.1052 c -10.69462,21.80807 -24.4629,38.50817 -41.24499,50.04267 -16.82641,11.53894 -35.40793,17.28514 -55.78887,17.28514 -22.91167,0 -39.83115,-7.14896 -50.71636,-21.44465 -10.87412,-14.34444 -14.38211,-35.11319 -10.5129,-62.30625 3.14678,-22.12941 10.33784,-42.30869 21.63744,-60.67969 11.24863,-18.324452 25.24516,-32.352003 41.94747,-42.078214 16.74442,-9.73286 34.14922,-14.570481 52.21662,-14.570481 20.2923,0 35.90432,5.608804 46.82498,16.879597 10.92509,11.264145 16.11063,26.647914 15.57435,46.058228 l -37.49101,3.70966 c -0.44321,-11.31068 -3.2044,-19.49896 -8.33011,-24.569266 -5.12571,-5.065874 -12.53615,-7.601027 -22.2668,-7.601027 -10.6503,0 -21.07678,3.350657 -31.27944,10.047538 -10.21152,6.741205 -19.08234,17.236385 -26.65234,31.492185 -7.57001,14.25358 -12.38768,28.50496 -14.41536,42.75854 -2.21383,15.5677 -0.29917,27.55428 5.69523,36.06166 5.99661,8.46086 14.3799,12.71344 25.11219,12.71344 9.95003,0 19.59425,-3.34844 28.84623,-10.08964 9.283,-6.69245 16.89733,-16.64913 22.82746,-29.81464 z"
     id="path94" /></g>
</svg>
